<svg xmlns="http://www.w3.org/2000/svg" viewBox="0 0 32 32">
  <circle cx="16" cy="16" r="15" fill="#001a08" stroke="#00c853" stroke-width="1.5"/>
  <path d="M16 3L28 7.5L28 18C28 24 23 29 16 31C9 29 4 24 4 18L4 7.5Z" fill="#003d18" stroke="#00c853" stroke-width=".8" opacity=".9"/>
  <!-- Eagle body -->
  <path d="M16 10C16 10 12.5 12 11 14C9.5 16 10 18 11.5 18C12.5 18 14 17 15 16.5L15 18.5C13.5 19 12.5 20.5 12.5 22C12.5 23.5 13.5 24.5 15 24.5L15 26.5C15 27.5 15.5 28.5 16 28.5C16.5 28.5 17 27.5 17 26.5L17 24.5C18.5 24.5 19.5 23.5 19.5 22C19.5 20.5 18.5 19 17 18.5L17 16.5C18 17 19.5 18 20.5 18C22 18 22.5 16 21 14C19.5 12 16 10 16 10Z" fill="#00e676"/>
  <!-- Crown -->
  <path d="M13 10L14 8L16 9.5L18 8L19 10L16 9Z" fill="rgba(255,215,0,.85)"/>
  <!-- Stars -->
  <circle cx="9" cy="21" r="1" fill="rgba(255,215,0,.7)"/>
  <circle cx="23" cy="21" r="1" fill="rgba(255,215,0,.7)"/>
  <!-- Scroll -->
  <rect x="10" y="26.5" width="12" height="2.5" rx="1" fill="rgba(0,200,83,.25)" stroke="rgba(0,200,83,.4)" stroke-width=".5"/>
</svg>
